<?xml version="1.0" encoding="utf-8"?>
<!-- Generator: Adobe Illustrator 24.0.1, SVG Export Plug-In . SVG Version: 6.00 Build 0)  -->
<svg version="1.2" baseProfile="tiny" id="Ebene_1" xmlns="http://www.w3.org/2000/svg" xmlns:xlink="http://www.w3.org/1999/xlink"
	 x="0px" y="0px" viewBox="0 0 400.33 74.22" xml:space="preserve">
<rect x="2.33" y="1.96" fill="none" width="396.28" height="70.3"/>
<g>
	<g>
		<path d="M80.06,25.9H36.95c-2.09,0-3.78-1.69-3.78-3.78s1.69-3.78,3.78-3.78h43.11c2.09,0,3.78,1.69,3.78,3.78
			S82.15,25.9,80.06,25.9z"/>
	</g>
	<g>
		<path fill="#E10000" d="M80.06,41.52H21.84c-2.09,0-3.78-1.69-3.78-3.78c0-2.09,1.69-3.78,3.78-3.78h58.22
			c2.09,0,3.78,1.69,3.78,3.78C83.84,39.83,82.15,41.52,80.06,41.52z"/>
	</g>
	<g>
		<path fill="#FFCC00" d="M80.06,57.14H6.72c-2.09,0-3.78-1.69-3.78-3.78c0-2.09,1.69-3.78,3.78-3.78h73.34
			c2.09,0,3.78,1.69,3.78,3.78C83.84,55.45,82.15,57.14,80.06,57.14z"/>
	</g>
	<g>
		<path fill="#000E52" d="M371.45,33.92h-0.3V3.36h-7.96v53.1h7.96V41.13h0.23l15.85,15.32H398l-19.8-19.27l19.65-17.14h-10.7
			L371.45,33.92z M342.78,56.45h7.96V20.04h-7.96V56.45z M346.72,2.6c-3.19,0-5.54,2.5-5.54,5.61c0,3.19,2.35,5.54,5.54,5.54
			c3.19,0,5.61-2.35,5.61-5.54C352.33,5.1,349.91,2.6,346.72,2.6 M319.19,27.25h13.96v-7.21h-13.96V9.12h-7.96v33.91
			c0,9.71,4.85,14.18,13.05,14.18c4.63,0,8.27-1.67,11.15-3.64l-3.11-6.37c-2.2,1.37-4.85,2.5-7.36,2.5c-3.19,0-5.76-1.97-5.76-6.83
			V27.25z M284.52,50.99c-5.99,0-7.96-2.43-7.96-4.78c0-2.35,1.67-4.55,7.13-5.08l10.01-0.99v9.56
			C291.5,50.46,288.09,50.99,284.52,50.99 M285.28,19.28c-4.93,0-10.32,1.06-15.4,4.25l2.96,6.45c3.26-1.9,7.89-3.64,12.14-3.64
			c5.54,0,8.72,2.12,8.72,6.98v0.61l-9.03,0.91c-10.01,0.99-16.08,4.55-16.08,11.3c0,6.68,4.63,11.07,16.31,11.07
			c5.92,0,12.74-1.44,16.76-3.57V32.86C301.66,23.91,295.67,19.36,285.28,19.28 M245.38,19.28c-4.55,0-9.41,1.37-13.05,3.64
			c-2.88-2.43-6.98-3.64-11.91-3.64c-6.07,0-12.59,2.43-16.01,5.99v31.18h7.96l-0.08-27c2.88-2.28,5.92-2.73,8.87-2.73
			c5.01,0,7.96,2.96,7.96,8.12v21.62h7.96V34.83c0-1.97-0.23-3.72-0.68-5.31c2.28-1.67,5.46-2.81,8.72-2.81
			c4.78,0,7.96,2.5,7.96,8.12v21.62h7.96V34.83C261.08,24.52,255.09,19.28,245.38,19.28 M169.23,34.61
			c0.99-5.08,4.63-8.42,10.09-8.42c5.08,0,8.34,2.96,9.25,8.42H169.23z M196.68,37.64c0-11.15-7.05-18.36-17.22-18.36
			c-10.7,0-18.58,7.51-18.58,18.66c0,12.06,8.19,19.27,19.12,19.27c5.46,0,10.47-1.37,14.94-5.08l-3.94-6.3
			c-3.03,3.11-6.9,4.55-10.54,4.55c-5.31,0-10.77-2.65-11.45-9.79h27.54C196.61,39.69,196.68,38.63,196.68,37.64 M151.63,25.28
			c-4.7-4.78-11.68-5.99-16.23-5.99c-13.12,0-20.86,7.59-20.86,19.04c0,10.92,7.36,18.13,17.9,18.13c3.03,0,4.7-1.44,4.7-3.87
			c0-2.28-1.67-3.57-4.7-3.57c-5.84,0-9.94-4.17-9.94-10.7c0-7.05,4.48-11.61,12.44-11.61c2.58,0,6.3,0.68,8.42,2.73L143.28,56
			c0,5.61-5.08,8.19-11.38,8.19c-5.76,0-9.56-2.58-10.32-2.96c-3.11-1.52-6.14-0.08-6.14,2.88c0,5.01,9.1,7.51,16.54,7.51
			c11.07,0,19.65-4.85,19.65-15.63V25.28z"/>
	</g>
</g>
</svg>
